HIERARCHY
ROOT Hips
{
	OFFSET -21.699400 33.110794 0.000000
	CHANNELS 6 Xposition Yposition Zposition Xrotation Yrotation Zrotation
	JOINT Bip01_Pelvis
	{
		OFFSET 0.000000 0.000000 -0.000000
		CHANNELS 3 Xrotation Yrotation Zrotation
		JOINT BN_Tail_01
		{
			OFFSET -6.267597 2.101337 0.000003
			CHANNELS 3 Xrotation Yrotation Zrotation
			JOINT BN_Tail_02
			{
				OFFSET -13.503519 -3.535381 0.000036
				CHANNELS 3 Xrotation Yrotation Zrotation
				JOINT BN_Tail_03
				{
					OFFSET -10.376980 -2.089394 0.000024
					CHANNELS 3 Xrotation Yrotation Zrotation
					JOINT BN_Tail_04
					{
						OFFSET -10.377483 -2.298637 0.000021
						CHANNELS 3 Xrotation Yrotation Zrotation
						End Site
						{
							OFFSET 2.298733 -10.377460 -0.000075
						}
					}
				}
			}
		}
		JOINT Bip01_Spine
		{
			OFFSET 6.414534 3.071911 -0.000026
			CHANNELS 3 Xrotation Yrotation Zrotation
			JOINT Bip01_R_Thigh
			{
				OFFSET -6.414526 -3.071896 5.427406
				CHANNELS 3 Xrotation Yrotation Zrotation
				JOINT Bip01_R_Calf
				{
					OFFSET -0.354433 -13.652294 -0.244455
					CHANNELS 3 Xrotation Yrotation Zrotation
					JOINT Bip01_R_HorseLink
					{
						OFFSET -4.871281 -7.637997 -0.538493
						CHANNELS 3 Xrotation Yrotation Zrotation
						JOINT Bip01_R_Foot
						{
							OFFSET 0.440022 -8.126162 -0.089540
							CHANNELS 3 Xrotation Yrotation Zrotation
							JOINT Bip01_R_Toe0
							{
								OFFSET 6.340572 -3.684492 0.585200
								CHANNELS 3 Xrotation Yrotation Zrotation
								JOINT Bip01_R_Toe0Nub
								{
									OFFSET 0.835005 0.014946 0.077900
									CHANNELS 3 Xrotation Yrotation Zrotation
									End Site
									{
										OFFSET -0.015009 0.838629 -0.000001
									}
								}
							}
						}
					}
				}
			}
			JOINT Bip01_L_Thigh
			{
				OFFSET -6.414551 -3.071918 -5.427347
				CHANNELS 3 Xrotation Yrotation Zrotation
				JOINT Bip01_L_Calf
				{
					OFFSET -0.354425 -13.652296 0.244489
					CHANNELS 3 Xrotation Yrotation Zrotation
					JOINT Bip01_L_HorseLink
					{
						OFFSET -4.871290 -7.637988 0.538531
						CHANNELS 3 Xrotation Yrotation Zrotation
						JOINT Bip01_L_Foot
						{
							OFFSET 0.440018 -8.126154 0.089561
							CHANNELS 3 Xrotation Yrotation Zrotation
							JOINT Bip01_L_Toe0
							{
								OFFSET 6.340565 -3.684505 -0.585207
								CHANNELS 3 Xrotation Yrotation Zrotation
								JOINT Bip01_L_Toe0Nub
								{
									OFFSET 0.835007 0.014945 -0.077903
									CHANNELS 3 Xrotation Yrotation Zrotation
									End Site
									{
										OFFSET 0.015009 -0.838632 0.000002
									}
								}
							}
						}
					}
				}
			}
			JOINT Bip01_Spine1
			{
				OFFSET 12.170003 0.000874 -0.000022
				CHANNELS 3 Xrotation Yrotation Zrotation
				JOINT Bip01_Spine2
				{
					OFFSET 13.264889 -0.625374 -0.000025
					CHANNELS 3 Xrotation Yrotation Zrotation
					JOINT Bip01_Neck
					{
						OFFSET 11.255137 3.040993 -0.000026
						CHANNELS 3 Xrotation Yrotation Zrotation
						JOINT Bip01_R_Clavicle
						{
							OFFSET -7.911091 0.784874 1.177936
							CHANNELS 3 Xrotation Yrotation Zrotation
							JOINT Bip01_R_UpperArm
							{
								OFFSET 6.724497 -10.472103 4.564085
								CHANNELS 3 Xrotation Yrotation Zrotation
								JOINT Bip01_R_Forearm
								{
									OFFSET -5.175943 -11.735615 -1.276544
									CHANNELS 3 Xrotation Yrotation Zrotation
									JOINT Bip01_R_Hand
									{
										OFFSET 1.157803 -11.170619 -0.845372
										CHANNELS 3 Xrotation Yrotation Zrotation
										JOINT Bip01_R_Finger0
										{
											OFFSET 1.160215 -3.813930 -0.043723
											CHANNELS 3 Xrotation Yrotation Zrotation
											JOINT Bip01_R_Finger0Nub
											{
												OFFSET 6.392904 0.010766 1.539281
												CHANNELS 3 Xrotation Yrotation Zrotation
												End Site
												{
													OFFSET -1.539301 0.009228 6.392900
												}
											}
										}
									}
								}
							}
						}
						JOINT Bip01_L_Clavicle
						{
							OFFSET -7.911097 0.784866 -1.177909
							CHANNELS 3 Xrotation Yrotation Zrotation
							JOINT Bip01_L_UpperArm
							{
								OFFSET 6.724487 -10.472111 -4.564073
								CHANNELS 3 Xrotation Yrotation Zrotation
								JOINT Bip01_L_Forearm
								{
									OFFSET -5.175933 -11.735605 1.276591
									CHANNELS 3 Xrotation Yrotation Zrotation
									JOINT Bip01_L_Hand
									{
										OFFSET 1.157809 -11.170620 0.845402
										CHANNELS 3 Xrotation Yrotation Zrotation
										JOINT Bip01_L_Finger0
										{
											OFFSET 1.160225 -3.813934 0.043731
											CHANNELS 3 Xrotation Yrotation Zrotation
											JOINT Bip01_L_Finger0Nub
											{
												OFFSET 6.392891 0.010768 -1.539303
												CHANNELS 3 Xrotation Yrotation Zrotation
												End Site
												{
													OFFSET 1.539320 -0.009209 6.392887
												}
											}
										}
									}
								}
							}
						}
						JOINT Bip01_Neck1
						{
							OFFSET 4.062487 1.040154 -0.000009
							CHANNELS 3 Xrotation Yrotation Zrotation
							JOINT Bip01_Head
							{
								OFFSET 4.038336 1.104565 -0.000007
								CHANNELS 3 Xrotation Yrotation Zrotation
								JOINT BN_Eye_R_01
								{
									OFFSET 7.606293 0.288517 2.553589
									CHANNELS 3 Xrotation Yrotation Zrotation
									End Site
									{
										OFFSET -4.288883 6.414886 -3.071564
									}
								}
								JOINT BN_Eye_L_01
								{
									OFFSET 7.606293 0.288506 -2.553737
									CHANNELS 3 Xrotation Yrotation Zrotation
									End Site
									{
										OFFSET 4.288876 -6.414898 -3.071546
									}
								}
								JOINT BN_Ear_R_01
								{
									OFFSET 3.540665 2.802040 4.456320
									CHANNELS 3 Xrotation Yrotation Zrotation
									End Site
									{
										OFFSET -5.134806 -3.798656 5.308839
									}
								}
								JOINT BN_Ear_L_01
								{
									OFFSET 3.540634 2.802013 -4.456186
									CHANNELS 3 Xrotation Yrotation Zrotation
									End Site
									{
										OFFSET 5.134834 3.798668 5.308802
									}
								}
								JOINT BN_Beard_L_01
								{
									OFFSET 10.417686 -4.495251 -2.320558
									CHANNELS 3 Xrotation Yrotation Zrotation
									End Site
									{
										OFFSET 0.000004 8.299625 0.309834
									}
								}
								JOINT BN_Beard_R_01
								{
									OFFSET 10.417683 -4.495232 2.320337
									CHANNELS 3 Xrotation Yrotation Zrotation
									End Site
									{
										OFFSET 0.000027 -8.299625 0.309875
									}
								}
								JOINT BN_Mouth_0
								{
									OFFSET 0.528744 -1.771828 -0.000001
									CHANNELS 3 Xrotation Yrotation Zrotation
									JOINT BN_Tongue_01
									{
										OFFSET 5.415756 -2.844566 0.000003
										CHANNELS 3 Xrotation Yrotation Zrotation
										JOINT BN_Tongue_02
										{
											OFFSET 1.708946 -1.094620 -0.000000
											CHANNELS 3 Xrotation Yrotation Zrotation
											End Site
											{
												OFFSET 0.586235 1.942940 -0.000006
											}
										}
									}
								}
								JOINT Bip01_HeadNub
								{
									OFFSET 11.127171 -6.094509 -0.000016
									CHANNELS 3 Xrotation Yrotation Zrotation
									End Site
									{
										OFFSET -3.989738 -7.284351 0.000036
									}
								}
							}
						}
					}
				}
			}
		}
	}
}
MOTION
Frames: 4
Frame Time: 0.033333
-12.083973 27.221645 -2.319342 1.702164 -5.734535 33.433564 0.313053 6.919184 -7.963355 7.063085 7.271549 -34.239636 -10.629895 8.516948 20.224861 3.301772 6.654481 20.881956 9.716176 19.374378 23.061490 1.893704 -7.248761 6.082217 -12.002232 9.443201 -36.105924 2.965710 -0.365709 -34.722445 -2.616635 -1.359107 34.223640 11.774925 4.894964 4.776817 -0.145310 -0.004904 1.558097 -0.000000 0.000000 0.000000 3.034198 8.135585 -27.188044 -3.642891 0.739363 -43.595680 3.961869 3.705742 65.501453 -3.252058 0.327173 -26.538731 0.047119 -2.645967 -0.001315 0.003744 0.000048 0.039398 1.429358 0.093533 15.730079 -2.571526 8.680452 4.237807 -1.817549 4.647415 9.071541 -1.689528 -6.885252 -14.182562 15.118053 22.477166 -27.339144 -1.050797 -4.557515 47.139298 18.600564 -20.377007 4.553107 25.535127 -12.861774 -88.128981 -0.000093 0.039578 -0.000081 26.771825 -3.503093 -8.734304 -0.613890 -5.120909 73.327511 0.638835 1.091470 12.411925 -2.093151 37.506915 7.117928 -20.531385 -2.113719 -40.469366 -0.000013 0.000002 0.000006 4.640579 1.083508 -4.700277 3.760669 3.581898 -18.802085 -0.019238 0.002009 -0.003419 -0.002259 -0.003442 -0.001096 3.804118 2.086068 -3.068885 2.697523 -2.659157 -0.759350 24.169926 -11.585278 2.063604 -4.235859 -2.274717 -1.100629 0.033491 -0.029541 -19.373545 0.000043 0.000038 -0.000048 0.031779 -0.014641 -0.003473 -0.000008 0.000005 -0.000019 
-11.811422 27.059341 -2.717441 1.005792 -5.801316 30.070673 -0.084914 3.659741 -9.188392 6.573833 6.504791 -32.465897 -10.916968 8.862513 20.491549 2.343470 8.189501 21.083814 9.108639 20.579126 23.453224 0.520350 -5.412989 4.745490 -11.757406 9.927467 -28.483738 3.203403 -0.481130 -37.744749 -2.582416 -1.325742 33.677563 12.473480 5.326828 6.540235 -0.157902 -0.005487 1.693239 -0.000000 0.000000 0.000000 3.663999 9.965901 -22.112828 -3.713417 0.785095 -44.536033 3.936985 3.630608 64.580122 -2.357525 -0.116362 -23.976206 0.047119 -2.645967 -0.001315 0.003744 0.000048 0.039398 -0.236211 -4.511276 14.523890 -3.969379 5.282362 4.758756 -0.369441 2.020269 7.124488 -3.806255 -4.602924 -13.270454 16.565604 26.444413 -22.971769 -1.057954 -4.518679 46.751774 18.003313 -17.974971 8.942797 26.215072 -12.355150 -86.632344 -0.000098 0.039575 -0.000081 24.912990 -0.489209 -7.584729 6.262153 -13.026912 63.401388 -0.230937 -0.291650 -3.646892 -6.255230 39.844124 7.191468 -20.477191 -5.127681 -44.330441 -0.000007 0.000002 0.000005 7.122279 0.970753 -7.467862 1.129915 4.858192 -13.065952 -0.019230 0.002020 -0.003400 -0.002255 -0.003447 -0.001102 4.263699 2.508537 -3.666714 2.061131 -3.320655 -1.530057 23.947545 -13.735107 2.313172 -3.529736 -2.019335 -1.068313 0.032962 -0.028968 -19.152146 0.000038 0.000028 -0.000050 0.031778 -0.014641 -0.003475 -0.000008 0.000007 -0.000022 
-11.484359 26.970581 -2.634325 -0.268276 -3.906864 25.170888 -0.631141 -0.158026 -10.410207 5.947889 5.211734 -30.694324 -10.270810 7.844423 20.312154 1.609605 9.274219 21.252987 8.753065 21.033907 23.846391 0.114064 -3.825685 -1.889142 -11.567496 8.439537 -14.904878 3.346618 -0.558377 -39.605538 -2.435084 -1.189048 31.381069 11.549902 4.558149 9.548117 -0.170620 -0.006106 1.829741 -0.000000 0.000000 0.000000 3.746464 11.967599 -8.918762 -3.917724 0.931558 -47.409631 3.889201 3.447504 62.436419 -3.127904 -1.378212 -19.642311 0.047119 -2.645968 -0.001315 0.003744 0.000049 0.039398 -2.066026 -4.857871 15.124909 -4.805386 -0.777192 5.018620 -2.477400 0.944159 1.467355 -3.752123 -4.927065 -9.202633 9.989103 28.613881 -12.372986 -1.080483 -4.384979 45.421328 13.716925 -15.090862 17.081461 26.568495 -9.917463 -78.927084 -0.000096 0.039577 -0.000079 26.276484 2.623612 -2.545741 0.793028 -27.006665 49.190544 -0.004906 -0.006556 -0.080350 -4.960658 37.660823 0.008019 -19.140125 0.394817 -51.574878 -0.000009 -0.000000 0.000005 2.479056 2.835362 -7.657965 5.566363 3.393114 0.387343 -0.019237 0.002027 -0.003422 -0.002256 -0.003444 -0.001094 4.732420 2.930296 -4.274050 1.409022 -3.980010 -2.316415 23.075044 -15.961949 2.468668 -2.717395 -1.747224 -1.022281 0.032458 -0.028412 -18.928572 0.000044 0.000035 -0.000048 0.031777 -0.014640 -0.003475 -0.000008 0.000007 -0.000020 
-11.075788 26.628166 -2.265585 -1.198917 -1.558663 19.835865 -1.276729 -4.134292 -11.627549 5.256691 3.414272 -28.781871 -8.695033 5.329131 19.896710 1.132730 9.967313 21.370871 8.389520 21.490801 24.247747 -0.406757 -2.332559 -7.846113 -10.447772 7.657334 -1.576392 3.593728 -0.706379 -42.899339 -2.349926 -1.114859 30.090422 10.053759 3.274004 13.041828 -0.183432 -0.006761 1.967563 -0.000000 0.000000 0.000000 4.172633 14.408356 4.285017 -4.247740 1.203754 -52.299674 3.861117 3.360007 61.386660 -4.522864 -2.773042 -14.769453 0.047120 -2.645969 -0.001315 0.003744 0.000048 0.039398 -3.104729 -4.245749 15.284939 -4.791592 -6.484344 5.288341 -4.825973 0.498393 -2.178002 -3.520818 -5.956538 -7.660595 3.276503 26.317486 -1.223200 -1.070832 -4.444625 46.014202 7.505416 -11.552262 21.147420 24.936532 -7.163061 -68.886529 -0.000096 0.039574 -0.000080 27.018903 4.417494 0.719267 -12.392675 -36.128726 27.455428 0.651438 1.119823 12.715701 -1.347819 30.252161 -4.836722 -17.077484 6.358294 -59.521383 -0.000010 0.000001 0.000007 -3.328710 4.352950 -4.894809 12.636688 0.210666 12.289274 -0.019266 0.002028 -0.003419 -0.002255 -0.003445 -0.001092 5.210412 3.351169 -4.891137 0.563456 -4.556470 -3.150726 22.190767 -18.212804 2.591490 -1.897349 -1.471781 -0.979760 0.028212 -0.024595 -18.669987 0.000044 0.000035 -0.000051 0.031775 -0.014641 -0.003475 -0.000010 0.000004 -0.000020 
